<?xml version="1.0" standalone="no"?>
<!DOCTYPE svg PUBLIC "-//W3C//DTD SVG 20010904//EN"
 "http://www.w3.org/TR/2001/REC-SVG-20010904/DTD/svg10.dtd">
<svg version="1.0" xmlns="http://www.w3.org/2000/svg"
 width="500.000000pt" height="500.000000pt" viewBox="0 0 500.000000 500.000000"
 preserveAspectRatio="xMidYMid meet">
<metadata>
Created by potrace 1.11, written by Peter Selinger 2001-2013
</metadata>
<g transform="translate(0.000000,500.000000) scale(0.100000,-0.100000)"
fill="#000000" stroke="none">
<path d="M1755 4933 c2 -38 7 -95 10 -128 2 -33 7 -89 10 -125 2 -36 7 -101
10 -145 4 -44 8 -100 11 -125 2 -25 6 -83 9 -130 4 -47 8 -99 10 -115 2 -17 6
-76 10 -130 3 -55 8 -118 10 -140 2 -22 6 -79 10 -125 3 -47 8 -103 10 -125 5
-55 17 -212 20 -260 2 -22 3 -46 4 -54 1 -13 18 -13 96 3 11 2 45 7 75 12 30
4 58 9 63 10 4 1 20 2 36 3 30 1 35 8 45 61 27 135 93 367 150 523 76 209 170
344 233 333 92 -17 207 -266 318 -691 l42 -160 154 5 c242 7 675 6 774 -3 208
-18 331 -54 369 -109 95 -135 -222 -365 -832 -604 -62 -24 -116 -44 -120 -44
-5 0 -16 -6 -26 -13 -16 -11 -14 -19 20 -112 42 -116 203 -596 214 -640 4 -16
31 -106 60 -200 151 -497 228 -915 188 -1029 -28 -83 -79 -78 -187 19 -168
150 -477 570 -846 1149 l-69 108 -30 -33 c-152 -175 -561 -598 -569 -589 -3 3
-8 48 -12 100 -3 52 -8 115 -10 140 -2 25 -6 86 -10 135 -4 50 -8 106 -10 125
-2 19 -6 73 -9 120 -4 47 -8 105 -11 130 -2 25 -7 86 -10 135 -3 50 -8 106
-10 125 -2 19 -6 80 -10 135 -3 55 -8 123 -11 150 -8 83 -13 145 -19 255 -4
58 -9 112 -10 122 -2 9 -7 65 -10 125 -13 205 -9 194 -62 181 -612 -144 -934
-254 -1059 -362 -92 -79 -72 -150 60 -210 41 -19 152 -53 201 -62 17 -2 37 -7
45 -9 19 -6 149 -25 215 -31 28 -3 64 -7 80 -9 66 -8 298 -19 423 -19 72 0
132 -2 132 -3 0 -1 -28 -42 -62 -90 -192 -276 -567 -854 -756 -1169 -365 -607
-518 -959 -452 -1039 34 -41 167 7 330 118 126 86 390 297 554 442 77 68 224
202 271 246 230 218 221 211 222 187 0 -13 11 -155 18 -248 2 -25 7 -85 10
-135 4 -49 8 -106 10 -125 2 -19 6 -73 10 -120 3 -47 8 -107 10 -135 2 -27 7
-90 10 -140 4 -49 8 -101 10 -115 5 -53 18 -236 19 -257 0 -19 3 -20 16 -10 8
7 17 14 20 17 3 3 77 68 165 145 88 76 165 143 170 149 6 6 42 38 80 71 112
96 152 134 152 148 0 6 3 62 7 122 4 61 9 142 12 180 2 39 6 95 9 125 2 30 7
93 10 140 3 47 8 110 10 140 2 30 7 98 10 150 4 52 8 96 9 98 2 1 29 -37 61
-85 83 -126 236 -340 334 -468 199 -261 332 -391 432 -424 41 -13 102 -6 136
16 31 21 69 88 78 137 7 43 8 185 1 226 -3 14 -7 43 -11 65 -9 64 -53 273 -75
360 -11 44 -22 89 -25 100 -34 142 -147 514 -266 869 -55 164 -98 299 -97 300
2 1 59 24 128 50 174 68 488 223 593 293 211 141 296 283 244 404 -40 93 -137
142 -341 173 -50 8 -98 14 -106 14 -8 0 -49 3 -90 6 -77 6 -424 7 -540 1 -36
-1 -122 -6 -192 -10 l-127 -6 4 43 c2 24 6 84 10 133 13 205 16 243 21 310 3
39 7 99 9 135 3 62 12 192 20 290 2 25 7 95 11 155 3 61 7 120 9 132 2 22 2
22 -95 40 -14 2 -98 20 -187 38 -90 19 -173 37 -185 39 -13 3 -48 10 -78 16
-30 6 -66 13 -80 16 -14 2 -54 11 -90 19 -63 14 -204 43 -245 51 -11 2 -31 6
-45 9 -14 3 -36 7 -50 10 -21 4 -123 25 -197 41 -22 4 -22 2 -18 -63z"/>
</g>
</svg>
