<?xml version="1.0" encoding="UTF-8" standalone="no"?>
<!DOCTYPE svg PUBLIC "-//W3C//DTD SVG 1.1//EN"
 "http://www.w3.org/Graphics/SVG/1.1/DTD/svg11.dtd">
<!-- Generated by graphviz version 2.42.3 (20191010.1750)
 -->
<!-- Title: %3 Pages: 1 -->
<svg width="604pt" height="404pt"
 viewBox="0.00 0.00 604.11 404.00" xmlns="http://www.w3.org/2000/svg" xmlns:xlink="http://www.w3.org/1999/xlink">
<g id="graph0" class="graph" transform="scale(1 1) rotate(0) translate(4 400)">
<title>%3</title>
<polygon fill="white" stroke="transparent" points="-4,4 -4,-400 600.11,-400 600.11,4 -4,4"/>
<!-- [root] docker_container.foo -->
<g id="node1" class="node">
<title>[root] docker_container.foo</title>
<polygon fill="none" stroke="black" points="500.71,-180 366.57,-180 366.57,-144 500.71,-144 500.71,-180"/>
<text text-anchor="middle" x="433.64" y="-157.8" font-family="Times,serif" font-size="14.00">docker_container.foo</text>
</g>
<!-- [root] docker_image.dockercloud -->
<g id="node2" class="node">
<title>[root] docker_image.dockercloud</title>
<polygon fill="none" stroke="black" points="517.63,-108 349.65,-108 349.65,-72 517.63,-72 517.63,-108"/>
<text text-anchor="middle" x="433.64" y="-85.8" font-family="Times,serif" font-size="14.00">docker_image.dockercloud</text>
</g>
<!-- [root] docker_container.foo&#45;&gt;[root] docker_image.dockercloud -->
<g id="edge1" class="edge">
<title>[root] docker_container.foo&#45;&gt;[root] docker_image.dockercloud</title>
<path fill="none" stroke="black" d="M433.64,-143.7C433.64,-135.98 433.64,-126.71 433.64,-118.11"/>
<polygon fill="black" stroke="black" points="437.14,-118.1 433.64,-108.1 430.14,-118.1 437.14,-118.1"/>
</g>
<!-- [root] provider.docker -->
<g id="node6" class="node">
<title>[root] provider.docker</title>
<polygon fill="none" stroke="black" points="433.64,-36 340.38,-18 433.64,0 526.91,-18 433.64,-36"/>
<text text-anchor="middle" x="433.64" y="-13.8" font-family="Times,serif" font-size="14.00">provider.docker</text>
</g>
<!-- [root] docker_image.dockercloud&#45;&gt;[root] provider.docker -->
<g id="edge2" class="edge">
<title>[root] docker_image.dockercloud&#45;&gt;[root] provider.docker</title>
<path fill="none" stroke="black" d="M433.64,-71.7C433.64,-63.98 433.64,-54.71 433.64,-46.11"/>
<polygon fill="black" stroke="black" points="437.14,-46.1 433.64,-36.1 430.14,-46.1 437.14,-46.1"/>
</g>
<!-- [root] output.container_info -->
<g id="node3" class="node">
<title>[root] output.container_info</title>
<polygon fill="none" stroke="black" points="448.06,-252 317.23,-252 317.23,-216 454.06,-216 454.06,-246 448.06,-252"/>
<polyline fill="none" stroke="black" points="448.06,-252 448.06,-246 "/>
<polyline fill="none" stroke="black" points="454.06,-246 448.06,-246 "/>
<text text-anchor="middle" x="385.64" y="-229.8" font-family="Times,serif" font-size="14.00">output.container_info</text>
</g>
<!-- [root] output.container_info&#45;&gt;[root] docker_container.foo -->
<g id="edge7" class="edge">
<title>[root] output.container_info&#45;&gt;[root] docker_container.foo</title>
<path fill="none" stroke="black" d="M397.51,-215.7C403.15,-207.47 410,-197.48 416.21,-188.42"/>
<polygon fill="black" stroke="black" points="419.15,-190.33 421.91,-180.1 413.37,-186.37 419.15,-190.33"/>
</g>
<!-- [root] output.stands -->
<g id="node4" class="node">
<title>[root] output.stands</title>
<polygon fill="none" stroke="black" points="100.92,-252 16.36,-252 16.36,-216 106.92,-216 106.92,-246 100.92,-252"/>
<polyline fill="none" stroke="black" points="100.92,-252 100.92,-246 "/>
<polyline fill="none" stroke="black" points="106.92,-246 100.92,-246 "/>
<text text-anchor="middle" x="61.64" y="-229.8" font-family="Times,serif" font-size="14.00">output.stands</text>
</g>
<!-- [root] var.stands -->
<g id="node8" class="node">
<title>[root] var.stands</title>
<polygon fill="none" stroke="black" points="91.26,-180 26.03,-180 26.03,-144 97.26,-144 97.26,-174 91.26,-180"/>
<polyline fill="none" stroke="black" points="91.26,-180 91.26,-174 "/>
<polyline fill="none" stroke="black" points="97.26,-174 91.26,-174 "/>
<text text-anchor="middle" x="61.64" y="-157.8" font-family="Times,serif" font-size="14.00">var.stands</text>
</g>
<!-- [root] output.stands&#45;&gt;[root] var.stands -->
<g id="edge8" class="edge">
<title>[root] output.stands&#45;&gt;[root] var.stands</title>
<path fill="none" stroke="black" d="M61.64,-215.7C61.64,-207.98 61.64,-198.71 61.64,-190.11"/>
<polygon fill="black" stroke="black" points="65.14,-190.1 61.64,-180.1 58.14,-190.1 65.14,-190.1"/>
</g>
<!-- [root] output.users -->
<g id="node5" class="node">
<title>[root] output.users</title>
<polygon fill="none" stroke="black" points="202.7,-252 124.59,-252 124.59,-216 208.7,-216 208.7,-246 202.7,-252"/>
<polyline fill="none" stroke="black" points="202.7,-252 202.7,-246 "/>
<polyline fill="none" stroke="black" points="208.7,-246 202.7,-246 "/>
<text text-anchor="middle" x="166.64" y="-229.8" font-family="Times,serif" font-size="14.00">output.users</text>
</g>
<!-- [root] var.users -->
<g id="node9" class="node">
<title>[root] var.users</title>
<polygon fill="none" stroke="black" points="193.53,-180 133.76,-180 133.76,-144 199.53,-144 199.53,-174 193.53,-180"/>
<polyline fill="none" stroke="black" points="193.53,-180 193.53,-174 "/>
<polyline fill="none" stroke="black" points="199.53,-174 193.53,-174 "/>
<text text-anchor="middle" x="166.64" y="-157.8" font-family="Times,serif" font-size="14.00">var.users</text>
</g>
<!-- [root] output.users&#45;&gt;[root] var.users -->
<g id="edge9" class="edge">
<title>[root] output.users&#45;&gt;[root] var.users</title>
<path fill="none" stroke="black" d="M166.64,-215.7C166.64,-207.98 166.64,-198.71 166.64,-190.11"/>
<polygon fill="black" stroke="black" points="170.14,-190.1 166.64,-180.1 163.14,-190.1 170.14,-190.1"/>
</g>
<!-- [root] var.author -->
<g id="node7" class="node">
<title>[root] var.author</title>
<polygon fill="none" stroke="black" points="293.02,-252 226.27,-252 226.27,-216 299.02,-216 299.02,-246 293.02,-252"/>
<polyline fill="none" stroke="black" points="293.02,-252 293.02,-246 "/>
<polyline fill="none" stroke="black" points="299.02,-246 293.02,-246 "/>
<text text-anchor="middle" x="262.64" y="-229.8" font-family="Times,serif" font-size="14.00">var.author</text>
</g>
<!-- [root] meta.count&#45;boundary (EachMode fixup) -->
<g id="node10" class="node">
<title>[root] meta.count&#45;boundary (EachMode fixup)</title>
<ellipse fill="none" stroke="black" cx="174.64" cy="-306" rx="174.79" ry="18"/>
<text text-anchor="middle" x="174.64" y="-301.8" font-family="Times,serif" font-size="14.00">[root] meta.count&#45;boundary (EachMode fixup)</text>
</g>
<!-- [root] meta.count&#45;boundary (EachMode fixup)&#45;&gt;[root] output.container_info -->
<g id="edge3" class="edge">
<title>[root] meta.count&#45;boundary (EachMode fixup)&#45;&gt;[root] output.container_info</title>
<path fill="none" stroke="black" d="M223.85,-288.68C253.87,-278.72 292.48,-265.91 324.46,-255.3"/>
<polygon fill="black" stroke="black" points="325.76,-258.55 334.15,-252.08 323.56,-251.91 325.76,-258.55"/>
</g>
<!-- [root] meta.count&#45;boundary (EachMode fixup)&#45;&gt;[root] output.stands -->
<g id="edge4" class="edge">
<title>[root] meta.count&#45;boundary (EachMode fixup)&#45;&gt;[root] output.stands</title>
<path fill="none" stroke="black" d="M147.29,-288.05C132.41,-278.84 113.81,-267.32 97.76,-257.37"/>
<polygon fill="black" stroke="black" points="99.48,-254.32 89.14,-252.03 95.8,-260.27 99.48,-254.32"/>
</g>
<!-- [root] meta.count&#45;boundary (EachMode fixup)&#45;&gt;[root] output.users -->
<g id="edge5" class="edge">
<title>[root] meta.count&#45;boundary (EachMode fixup)&#45;&gt;[root] output.users</title>
<path fill="none" stroke="black" d="M172.67,-287.7C171.78,-279.98 170.73,-270.71 169.74,-262.11"/>
<polygon fill="black" stroke="black" points="173.21,-261.64 168.6,-252.1 166.26,-262.44 173.21,-261.64"/>
</g>
<!-- [root] meta.count&#45;boundary (EachMode fixup)&#45;&gt;[root] var.author -->
<g id="edge6" class="edge">
<title>[root] meta.count&#45;boundary (EachMode fixup)&#45;&gt;[root] var.author</title>
<path fill="none" stroke="black" d="M195.95,-288.05C207.1,-279.18 220.95,-268.17 233.12,-258.48"/>
<polygon fill="black" stroke="black" points="235.59,-261 241.23,-252.03 231.23,-255.52 235.59,-261"/>
</g>
<!-- [root] provider.docker (close) -->
<g id="node11" class="node">
<title>[root] provider.docker (close)</title>
<ellipse fill="none" stroke="black" cx="481.64" cy="-306" rx="114.44" ry="18"/>
<text text-anchor="middle" x="481.64" y="-301.8" font-family="Times,serif" font-size="14.00">[root] provider.docker (close)</text>
</g>
<!-- [root] provider.docker (close)&#45;&gt;[root] docker_container.foo -->
<g id="edge10" class="edge">
<title>[root] provider.docker (close)&#45;&gt;[root] docker_container.foo</title>
<path fill="none" stroke="black" d="M479.49,-287.86C476.86,-269.62 471.61,-240.14 462.64,-216 459.25,-206.86 454.49,-197.36 449.81,-188.98"/>
<polygon fill="black" stroke="black" points="452.69,-186.95 444.64,-180.06 446.63,-190.47 452.69,-186.95"/>
</g>
<!-- [root] root -->
<g id="node12" class="node">
<title>[root] root</title>
<ellipse fill="none" stroke="black" cx="327.64" cy="-378" rx="46.9" ry="18"/>
<text text-anchor="middle" x="327.64" y="-373.8" font-family="Times,serif" font-size="14.00">[root] root</text>
</g>
<!-- [root] root&#45;&gt;[root] meta.count&#45;boundary (EachMode fixup) -->
<g id="edge11" class="edge">
<title>[root] root&#45;&gt;[root] meta.count&#45;boundary (EachMode fixup)</title>
<path fill="none" stroke="black" d="M298.51,-363.67C276.44,-353.57 245.71,-339.51 220.38,-327.92"/>
<polygon fill="black" stroke="black" points="221.51,-324.59 210.96,-323.62 218.6,-330.96 221.51,-324.59"/>
</g>
<!-- [root] root&#45;&gt;[root] provider.docker (close) -->
<g id="edge12" class="edge">
<title>[root] root&#45;&gt;[root] provider.docker (close)</title>
<path fill="none" stroke="black" d="M356.61,-363.83C379.19,-353.57 410.95,-339.13 436.81,-327.38"/>
<polygon fill="black" stroke="black" points="438.38,-330.51 446.04,-323.18 435.49,-324.14 438.38,-330.51"/>
</g>
</g>
</svg>
